<svg width="46" height="38" viewBox="0 0 46 38" fill="none" xmlns="http://www.w3.org/2000/svg">
<g clip-path="url(#clip0_37_1062)">
<path fill-rule="evenodd" clip-rule="evenodd" d="M19.9905 1.06836H24.9452C25.301 1.06836 25.592 1.35941 25.592 1.71516V6.66984C25.592 7.02559 25.301 7.31664 24.9452 7.31664L19.9905 7.31639C19.6348 7.31639 19.3437 7.02534 19.3437 6.66959V1.71491C19.3437 1.35915 19.6348 1.06836 19.9905 1.06836ZM20.7688 4.44545L21.855 5.53164C22.0654 5.74212 22.4068 5.74212 22.6171 5.53164C22.6314 5.51729 22.645 5.50193 22.6573 5.48657L24.205 3.57356C24.3923 3.34243 24.3566 3.00278 24.125 2.81545C23.8938 2.62813 23.5542 2.66388 23.3668 2.89551L22.1938 4.346L21.5314 3.6836C21.321 3.47312 20.9796 3.47312 20.7693 3.6836C20.5583 3.89383 20.5583 4.23473 20.7688 4.44545L20.7688 4.44545ZM37.1653 34.9124C36.9314 35.0952 36.5943 35.0534 36.4115 34.82C36.2288 34.5861 36.2705 34.249 36.5039 34.0662L37.36 33.3978L31.8511 33.3975C31.5533 33.3975 31.3121 33.1561 31.3121 32.8585C31.3121 32.5606 31.5535 32.3194 31.8511 32.3194H37.3605L36.5045 31.651C36.2706 31.4682 36.2293 31.131 36.4121 30.8972C36.5948 30.6633 36.932 30.622 37.1659 30.8048L39.2462 32.4295C39.283 32.4574 39.317 32.4904 39.347 32.5284C39.5297 32.7623 39.4879 33.0994 39.2546 33.2822L37.1653 34.9124ZM24.0772 12.606C24.6785 12.7599 25.2462 12.9978 25.7666 13.3065L27.8813 11.7754L29.5735 13.4676L28.0425 15.5823C28.3511 16.1029 28.5891 16.6705 28.7429 17.2717L31.3203 17.6841V20.0772L28.7434 20.4896C28.5896 21.0909 28.3516 21.6586 28.043 22.179L29.574 24.2937L27.8818 25.9859L25.7671 24.4549C25.2465 24.7635 24.679 25.0015 24.0777 25.1553L23.6653 27.7327H21.2722L20.8598 25.1558C20.2586 25.002 19.6908 24.7641 19.1704 24.4554L17.0557 25.9864L15.3635 24.2942L16.8946 22.1796C16.5859 21.6589 16.3479 21.0914 16.1941 20.4901L13.6167 20.0777V17.6846L16.1941 17.2722C16.348 16.671 16.5859 16.1032 16.8946 15.5828L15.3635 13.4681L17.0557 11.7759L19.1704 13.307C19.691 12.9983 20.2586 12.7604 20.86 12.6065L21.2725 10.0297H23.6656L24.0772 12.606ZM22.4679 15.3451C20.5151 15.3451 18.9322 16.928 18.9322 18.8807C18.9322 20.8335 20.5151 22.4164 22.4679 22.4164C24.4206 22.4164 26.0035 20.8334 26.0035 18.8807C26.0038 16.928 24.4208 15.3451 22.4679 15.3451ZM13.9044 29.2395C12.3858 27.9827 11.148 26.3993 10.2998 24.5973C9.48376 22.8643 9.02826 20.9267 9.02826 18.88C9.02826 15.1686 10.5326 11.8087 12.9648 9.37622C14.4351 7.90588 16.2449 6.7749 18.2661 6.10992V4.97946C15.9468 5.67962 13.8724 6.94429 12.2026 8.61411C9.57535 11.2414 7.95013 14.871 7.95013 18.8798C7.95013 21.086 8.44387 23.1798 9.32707 25.0561C10.2438 27.0033 11.5797 28.7133 13.2183 30.0691C13.4471 30.2587 13.7868 30.2267 13.9764 29.9976C14.1657 29.7682 14.1332 29.4289 13.9044 29.2392L13.9044 29.2395ZM26.6703 4.97952V6.10999C28.6915 6.77464 30.5013 7.90562 31.9717 9.37628C34.4038 11.8084 35.9082 15.1684 35.9082 18.8801C35.9082 22.5915 34.4038 25.9514 31.9717 28.3833C29.5395 30.8156 26.1793 32.32 22.4679 32.32H6.66942C6.37157 32.32 6.13037 32.5615 6.13037 32.8591C6.13037 33.1569 6.37182 33.3981 6.66942 33.3981H22.4679C26.4769 33.3981 30.1063 31.7731 32.7335 29.1456C35.3608 26.5183 36.986 22.8887 36.986 18.8799C36.986 14.8709 35.3611 11.2414 32.7335 8.61427C31.0638 6.94477 28.9896 5.68011 26.67 4.97988L26.6703 4.97952Z" fill="#373737"/>
</g>
<defs>
<clipPath id="clip0_37_1062">
<rect width="45.1181" height="37.3675" fill="white" transform="translate(0.236816)"/>
</clipPath>
</defs>
</svg>
