<svg width="47" height="37" viewBox="0 0 47 37" fill="none" xmlns="http://www.w3.org/2000/svg">
<g clip-path="url(#clip0_37_1186)">
<path d="M25.7069 8.41558H22.4993C22.2243 8.41558 22.0058 8.19704 22.0058 7.9221V7.38633L19.8768 8.93723L22.0058 10.4811V9.94533C22.0058 9.67039 22.2243 9.45185 22.4993 9.45185H25.3614C25.4531 9.09232 25.573 8.74688 25.7069 8.41558ZM22.9928 7.42865H26.2075C26.8208 6.39938 27.6668 5.53936 28.6537 4.89778C30.3174 3.82623 32.3901 3.38916 34.4697 3.84035C36.5564 4.29153 38.2624 5.54639 39.334 7.21009C40.4056 8.87379 40.8426 10.9464 40.3914 13.0261C39.4679 17.277 35.3227 19.7796 31.2976 18.9619C29.225 18.539 27.4343 17.2982 26.3063 15.5217L24.7977 16.6144C24.4734 16.8541 24.0152 16.6073 24.0152 16.2125V15.2044H20.8992C19.4258 17.8057 16.5847 19.3144 13.6307 19.0958C11.2197 18.9267 9.00606 17.6365 7.68075 15.571C6.61622 13.9143 6.17915 11.8557 6.61622 9.78315C6.62327 9.762 6.62327 9.7479 6.63032 9.7338C7.08855 7.6612 8.33636 5.96218 9.99303 4.89772C11.6497 3.83325 13.7083 3.39612 15.7808 3.83319C15.802 3.83319 15.8161 3.84024 15.8302 3.84024C16.9299 4.07993 17.9169 4.54524 18.7699 5.17967C19.5101 5.72954 20.1376 6.39927 20.631 7.15358L22.1819 6.02563C22.5344 5.75775 22.9856 6.01858 22.9856 6.40631V7.4285L22.9928 7.42865ZM26.2497 9.97357C26.1229 10.5798 26.0735 11.1298 26.1088 11.743L28.266 13.3151C28.5409 13.5196 28.5268 13.9285 28.2589 14.1188L27.1098 14.9578C27.1733 15.0706 27.2508 15.1763 27.3213 15.2821C28.1391 14.3022 29.2882 13.6818 30.5571 13.5408C28.6044 12.1378 28.3717 9.31795 30.0778 7.61197C31.6005 6.08924 34.075 6.08924 35.5977 7.61197C37.3037 9.31802 37.064 12.1379 35.1183 13.5408C36.3873 13.6817 37.5434 14.3092 38.3611 15.2679C38.8617 14.5559 39.2353 13.7311 39.4257 12.8217C39.8205 11.0029 39.4398 9.19813 38.5022 7.74591C37.5716 6.29369 36.0771 5.20099 34.2582 4.80621C32.4394 4.41142 30.6347 4.79211 29.1824 5.72971C26.6375 7.37227 26.2709 9.95251 26.2498 9.97365L26.2497 9.97357ZM25.1712 10.4389H22.9928V11.447C22.9928 11.8347 22.5416 12.0815 22.2103 11.8488L21.9001 11.6232L21.8648 12.2013H24.0221V11.1932C24.0221 10.7984 24.4732 10.5446 24.8257 10.8125L25.1218 11.024L25.1712 10.4389ZM20.8991 10.8971L18.756 9.3391C18.481 9.14876 18.4669 8.73987 18.7489 8.53541L19.8416 7.73882C18.897 6.27248 17.3531 5.16567 15.6048 4.80614C13.7859 4.41136 11.9812 4.79204 10.529 5.72965C9.07674 6.66024 7.98404 8.15475 7.58926 9.97359C7.19448 11.7924 7.57516 13.5971 8.51276 15.0494C8.56211 15.1199 8.61146 15.1974 8.66081 15.2679C9.47152 14.3021 10.6277 13.6818 11.8966 13.5407C9.94384 12.1378 9.71122 9.31793 11.4172 7.61195C12.94 6.08921 15.4144 6.08921 16.9372 7.61195C18.6432 9.31799 18.4035 12.1379 16.4578 13.5407C17.7268 13.6817 18.8829 14.3092 19.7006 15.2679C20.5819 14.006 21.0119 12.4339 20.8991 10.8971ZM24.5155 13.1883H21.6957C21.6111 13.5407 21.5053 13.8933 21.3714 14.2245H24.5155C24.7905 14.2245 25.009 14.4431 25.009 14.718V15.2538L27.138 13.7099L25.009 12.166V12.7018C25.009 12.9697 24.7834 13.1883 24.5155 13.1883ZM28.844 21.1754C28.6819 20.9569 28.7312 20.6467 28.9427 20.4846C29.1542 20.3224 29.4715 20.3718 29.6336 20.5833C30.7193 22.0566 31.2339 23.8332 31.1564 25.6026C30.9872 29.2967 28.2589 32.3774 24.6071 32.984C23.2395 33.2096 21.8225 33.0756 20.5113 32.5751L20.5747 32.6879C20.7086 32.9276 20.617 33.2237 20.3844 33.3576C20.1447 33.4916 19.8486 33.3999 19.7146 33.1673L18.8828 31.6516C18.7065 31.3273 18.9321 30.9043 19.3551 30.9254L21.047 30.9607C21.4982 30.9677 21.6956 31.5317 21.3572 31.8208C25.6082 33.0826 29.9722 30.0301 30.1694 25.5606C30.247 24.0167 29.7958 22.4658 28.8441 21.1757L28.844 21.1754ZM26.0664 17.8057C25.9325 17.566 26.0241 17.2699 26.2568 17.136C26.4965 17.0091 26.7926 17.0937 26.9265 17.3333L27.7584 18.842C27.9346 19.1663 27.709 19.5963 27.286 19.5681L25.5941 19.5329C25.1429 19.5258 24.9456 18.9618 25.2839 18.6728C20.9977 17.4038 16.669 20.4845 16.4717 24.9329C16.4012 26.4768 16.8524 28.0348 17.8041 29.3178C17.9663 29.5364 17.9169 29.8465 17.7054 30.0087C17.4869 30.1709 17.1767 30.1215 17.0145 29.903C15.9218 28.4296 15.4072 26.653 15.4848 24.8906C15.654 21.1966 18.3892 18.1087 22.0198 17.5093C23.3945 17.2837 24.8186 17.4247 26.1298 17.9252L26.0664 17.8057ZM23.3241 22.522C24.8327 22.522 26.0523 23.7416 26.0523 25.2502C26.0523 26.7588 24.8327 27.9784 23.3241 27.9784C21.8155 27.9784 20.5959 26.7588 20.5959 25.2502C20.5959 23.7416 21.8155 22.522 23.3241 22.522ZM24.5578 24.0165C23.4651 22.9238 21.5829 23.6993 21.5829 25.2503C21.5829 26.8012 23.4581 27.5767 24.5578 26.484C25.2346 25.8002 25.2346 24.7004 24.5578 24.0166V24.0165ZM22.5345 19.5964H24.1137C24.3886 19.5964 24.6071 19.8149 24.6071 20.0899V20.7314C24.9596 20.8301 25.298 20.9711 25.6153 21.1473L26.0665 20.6961C26.2568 20.5058 26.574 20.5058 26.7644 20.6961L27.8782 21.81C28.0685 22.0003 28.0685 22.3175 27.8782 22.5079L27.427 22.9591C27.6033 23.2763 27.7443 23.6147 27.843 23.9672H28.4845C28.7594 23.9672 28.978 24.1857 28.978 24.4607V26.0398C28.978 26.3147 28.7594 26.5333 28.4845 26.5333H27.843C27.7443 26.8858 27.6033 27.2242 27.427 27.5414L27.8782 27.9926C28.0685 28.1829 28.0685 28.5002 27.8782 28.6905L26.7644 29.8043C26.574 29.9947 26.2638 29.9947 26.0665 29.8043L25.6153 29.3532C25.4602 29.4378 25.291 29.5223 25.1218 29.5928C24.9526 29.6633 24.7834 29.7197 24.6072 29.7761V30.4106C24.6072 30.6856 24.3886 30.9041 24.1137 30.9041H22.5346C22.2596 30.9041 22.0411 30.6856 22.0411 30.4106V29.7761C21.6886 29.6775 21.3502 29.5365 21.0329 29.3602L20.5818 29.8114C20.3914 30.0017 20.0742 30.0017 19.8839 29.8114L18.77 28.6976C18.5797 28.5072 18.5797 28.19 18.77 27.9996L19.2212 27.5485C19.1296 27.3863 19.052 27.2242 18.9815 27.055C18.911 26.8858 18.8546 26.7166 18.7982 26.5404H18.1637C17.8888 26.5404 17.6703 26.3218 17.6703 26.0469V24.4677C17.6703 24.1928 17.8888 23.9743 18.1637 23.9743H18.8053C18.9039 23.6218 19.0449 23.2834 19.2212 22.9661L18.77 22.515C18.5797 22.3246 18.5797 22.0074 18.77 21.817L19.8838 20.7032C20.0742 20.5129 20.3844 20.5129 20.5818 20.7032L21.0329 21.1544C21.3502 20.9781 21.6886 20.8371 22.0411 20.7385V20.0969C22.0481 19.822 22.2666 19.5964 22.5345 19.5964ZM23.6202 20.5833H23.028V21.0909C23.0421 21.3376 22.8729 21.5562 22.6262 21.5985C22.1821 21.6831 21.6322 21.8946 21.2656 22.1554C21.0753 22.3034 20.7933 22.2893 20.6171 22.1131L20.2364 21.7324L19.8205 22.1483L20.2012 22.522C20.3633 22.6841 20.3915 22.945 20.2575 23.1494C20.0038 23.523 19.757 24.0659 19.6865 24.5029C19.6583 24.7497 19.4468 24.94 19.2001 24.94H18.6643V25.5322H19.2001C19.4327 25.5322 19.6372 25.7014 19.6865 25.934C19.7359 26.1808 19.8064 26.4275 19.9051 26.6531C19.9897 26.8505 20.1236 27.1184 20.2505 27.2946C20.3985 27.4849 20.3844 27.7669 20.2082 27.9431L19.8275 28.3238L20.2434 28.7398L20.6241 28.3591C20.7933 28.1969 21.0542 28.1687 21.2516 28.3027C21.6181 28.5565 22.168 28.8032 22.6051 28.8737C22.8518 28.9019 23.0422 29.1134 23.0422 29.3601V29.8959H23.6344V29.3601C23.6344 29.1275 23.7965 28.9231 24.0362 28.8737C24.2829 28.8244 24.5297 28.7539 24.7552 28.6552C24.9526 28.5706 25.2276 28.4366 25.3968 28.3097C25.5871 28.1617 25.8691 28.1758 26.0453 28.352L26.426 28.7327L26.8419 28.3168L26.4612 27.9361C26.2991 27.774 26.2709 27.5061 26.4048 27.3087C26.6586 26.935 26.9054 26.3922 26.9759 25.9551C27.0041 25.7084 27.2156 25.5181 27.4623 25.5181H27.9981V24.9259H27.4552C27.2226 24.9259 27.0182 24.7567 26.9688 24.524C26.8842 24.0729 26.6727 23.523 26.4119 23.1564C26.2638 22.966 26.2779 22.6841 26.4542 22.5078L26.8349 22.1342L26.4189 21.7183L26.0383 22.099C25.8691 22.2611 25.6082 22.2893 25.4108 22.1554C25.0442 21.9016 24.4944 21.6548 24.0573 21.5843C23.8105 21.5561 23.6202 21.3446 23.6202 21.0909L23.6202 20.5833ZM37.7267 16.0433C36.9794 15.0775 35.8303 14.4924 34.5825 14.4924H31.1C29.8522 14.4924 28.7031 15.0775 27.9559 16.0362C30.5784 18.8138 35.0478 18.8561 37.7265 16.0433L37.7267 16.0433ZM32.8413 7.44955C31.2339 7.44955 29.9227 8.75372 29.9227 10.3681C29.9227 11.9825 31.2269 13.2867 32.8413 13.2867C34.4556 13.2867 35.7598 11.9825 35.7598 10.3681C35.7598 8.75372 34.4486 7.44955 32.8413 7.44955ZM19.059 16.0433C18.3117 15.0775 17.1626 14.4924 15.9148 14.4924H12.4323C11.1845 14.4924 10.0353 15.0775 9.28811 16.0362L9.65469 16.3958C12.397 18.8561 16.5423 18.6869 19.0592 16.0433L19.059 16.0433ZM14.1735 7.44955C12.5661 7.44955 11.2549 8.75372 11.2549 10.3681C11.2549 11.9825 12.5591 13.2867 14.1735 13.2867C15.7809 13.2867 17.0921 11.9825 17.0921 10.3681C17.0921 8.75372 15.7879 7.44955 14.1735 7.44955Z" fill="#373737"/>
</g>
<defs>
<clipPath id="clip0_37_1186">
<rect width="45.1181" height="35.8689" fill="white" transform="translate(0.94873 0.498535)"/>
</clipPath>
</defs>
</svg>
