<svg width="46" height="38" viewBox="0 0 46 38" fill="none" xmlns="http://www.w3.org/2000/svg">
<g clip-path="url(#clip0_37_1187)">
<path d="M40.3603 15.7911C40.3603 15.5655 40.2248 15.3568 40.0106 15.2722L31.5509 11.77L31.1166 12.8133L38.3187 15.7969L23.4414 21.9556L8.564 15.7911L15.7661 12.8075L15.3318 11.7642L6.87218 15.2664C6.66345 15.351 6.52246 15.5597 6.52246 15.7853C6.52246 16.0109 6.65792 16.2196 6.87218 16.3042L11.0683 18.0412L6.87798 19.7781C6.66926 19.8627 6.52826 20.0715 6.52826 20.2971C6.52826 20.5226 6.66372 20.7314 6.87798 20.816L11.0741 22.5529L6.87798 24.2899C6.66926 24.3745 6.52826 24.5833 6.52826 24.8088C6.52826 25.0344 6.66372 25.2432 6.87798 25.3278L23.2333 32.0955C23.301 32.1237 23.3743 32.1405 23.4476 32.1405C23.5208 32.1405 23.5941 32.1237 23.6618 32.0955L40.0171 25.3278C40.2258 25.2432 40.3668 25.0344 40.3668 24.8088C40.3668 24.5833 40.2314 24.3745 40.0171 24.2899L35.821 22.5529L40.0171 20.816C40.2258 20.7314 40.3668 20.5226 40.3668 20.2971C40.3668 20.0715 40.2314 19.8627 40.0171 19.7781L35.8268 18.0412L40.0229 16.3042C40.2316 16.2196 40.3726 16.0109 40.3726 15.7853L40.3603 15.7911ZM38.3186 24.8147L23.4412 30.9734L8.56387 24.8147L12.5399 23.1678L23.2271 27.5895C23.2949 27.6177 23.3681 27.6346 23.4414 27.6346C23.5147 27.6346 23.5879 27.6177 23.6556 27.5895L34.3428 23.1678L38.3186 24.8147ZM38.3186 20.3029L23.4412 26.4616L8.56387 20.3029L12.5399 18.656L23.2271 23.0777C23.2949 23.1059 23.3681 23.1228 23.4414 23.1228C23.5147 23.1228 23.5879 23.1059 23.6556 23.0777L34.3428 18.656L38.3186 20.3029Z" fill="#373737"/>
<path d="M30.2088 10.7155C30.2088 6.98188 27.1746 3.94775 23.4411 3.94775C19.7075 3.94775 16.6733 6.98188 16.6733 10.7155C16.6733 14.4491 19.7075 17.4832 23.4411 17.4832C25.4658 17.4832 27.3662 16.5864 28.6633 15.0244L27.7947 14.3026C26.7176 15.6052 25.1271 16.3556 23.4407 16.3556C20.3333 16.3556 17.801 13.8232 17.801 10.7158C17.801 7.60838 20.3333 5.07603 23.4407 5.07603C26.5481 5.07603 29.0805 7.60838 29.0805 10.7158C29.0805 10.8905 29.0692 11.0597 29.0523 11.2289L30.1747 11.3304C30.1916 11.1274 30.2029 10.9243 30.2029 10.7155L30.2088 10.7155Z" fill="#373737"/>
<path d="M29.9495 12.5537L28.8611 12.2549C28.7652 12.6159 28.63 12.9543 28.4663 13.27L29.4646 13.7945C29.6675 13.4052 29.8312 12.988 29.9495 12.5537Z" fill="#373737"/>
<path d="M26.2609 10.7154C26.2609 9.15894 24.9974 7.89551 23.441 7.89551C21.8845 7.89551 20.6211 9.15894 20.6211 10.7154C20.6211 12.2718 21.8845 13.5353 23.441 13.5353C24.9974 13.5353 26.2609 12.2718 26.2609 10.7154ZM23.441 12.4073C22.5104 12.4073 21.749 11.646 21.749 10.7154C21.749 9.7848 22.5104 9.02346 23.441 9.02346C24.3716 9.02346 25.1329 9.7848 25.1329 10.7154C25.1329 11.646 24.3716 12.4073 23.441 12.4073Z" fill="#373737"/>
<path d="M22.877 5.63965H24.0049V7.33158H22.877V5.63965Z" fill="#373737"/>
<path d="M22.877 14.0991H24.0049V15.7911H22.877V14.0991Z" fill="#373737"/>
<path d="M26.8247 10.1514H28.5166V11.2793H26.8247V10.1514Z" fill="#373737"/>
<path d="M18.3652 10.1514H20.0572V11.2793H18.3652V10.1514Z" fill="#373737"/>
<path d="M25.4346 7.92736L26.631 6.73096L27.4286 7.52858L26.2322 8.72498L25.4346 7.92736Z" fill="#373737"/>
<path d="M19.4507 13.9059L20.6471 12.7095L21.4447 13.5071L20.2483 14.7035L19.4507 13.9059Z" fill="#373737"/>
<path d="M25.4321 13.5095L26.2298 12.7119L27.4262 13.9083L26.6285 14.7059L25.4321 13.5095Z" fill="#373737"/>
<path d="M19.4531 7.52565L20.2507 6.72803L21.4472 7.92443L20.6495 8.72205L19.4531 7.52565Z" fill="#373737"/>
</g>
<defs>
<clipPath id="clip0_37_1187">
<rect width="45.1181" height="37.3675" fill="white" transform="translate(0.881836)"/>
</clipPath>
</defs>
</svg>
