<svg width="870" height="466" viewBox="0 0 870 466" fill="none" xmlns="http://www.w3.org/2000/svg">
<path d="M161.68 443.41H153.08V437.13H178.16V443.41H169.6V465.13H161.68V443.41Z" fill="#333333"/>
<path d="M207.84 459V465.12H185.36V437.12H207.32V443.24H193.2V447.96H205.64V453.88H193.2V459H207.84Z" fill="#333333"/>
<path d="M215 451.12C215 442.6 221.52 436.56 230.4 436.56C235.56 436.56 239.72 438.44 242.44 441.84L237.4 446.4C235.64 444.28 233.48 443.12 230.8 443.12C226.2 443.12 223 446.32 223 451.12C223 455.92 226.2 459.12 230.8 459.12C233.48 459.12 235.64 457.96 237.4 455.84L242.44 460.4C239.72 463.8 235.56 465.68 230.4 465.68C221.52 465.68 215 459.64 215 451.12Z" fill="#333333"/>
<path d="M276.84 437.13V465.13H268.92V454.21H258.12V465.13H250.2V437.13H258.12V447.65H268.92V437.13H276.84Z" fill="#333333"/>
<path d="M306.12 439.69V450.69H320.6V453.25H306.12V465.13H303.16V437.13H322.36V439.69H306.12Z" fill="#333333"/>
<path d="M329.88 451.12C329.88 442.96 336.12 436.88 344.6 436.88C353.08 436.88 359.28 442.92 359.28 451.12C359.28 459.32 353 465.36 344.6 465.36C336.2 465.36 329.88 459.28 329.88 451.12ZM356.32 451.12C356.32 444.44 351.32 439.52 344.6 439.52C337.88 439.52 332.8 444.44 332.8 451.12C332.8 457.8 337.84 462.72 344.6 462.72C351.36 462.72 356.32 457.8 356.32 451.12Z" fill="#333333"/>
<path d="M389.28 465.12L382.88 456.12C382.16 456.2 381.44 456.24 380.64 456.24H373.12V465.12H370.16V437.12H380.64C387.76 437.12 392.08 440.72 392.08 446.72C392.08 451.12 389.76 454.2 385.68 455.52L392.52 465.12H389.28ZM389.12 446.73C389.12 442.25 386.16 439.69 380.56 439.69H373.12V453.73H380.56C386.16 453.73 389.12 451.13 389.12 446.73Z" fill="#333333"/>
<path d="M441.44 437.13V465.13H438.52V452.21H421V465.13H418.04V437.13H421V449.61H438.52V437.13H441.44Z" fill="#333333"/>
<path d="M454.56 453.16V437.12H457.52V453.04C457.52 459.68 460.64 462.72 466.08 462.72C471.52 462.72 474.68 459.68 474.68 453.04V437.12H477.56V453.16C477.56 461.2 473.24 465.36 466.08 465.36C458.92 465.36 454.56 461.2 454.56 453.16Z" fill="#333333"/>
<path d="M519.8 437.13V465.13H516.96V442.73L505.96 461.57H504.56L493.56 442.85V465.13H490.72V437.13H493.16L505.32 457.89L517.36 437.13H519.8Z" fill="#333333"/>
<path d="M550.72 457.64H535.12L531.76 465.12H528.68L541.48 437.12H544.4L557.2 465.12H554.08L550.72 457.64ZM549.64 455.24L542.92 440.2L536.2 455.24H549.64Z" fill="#333333"/>
<path d="M589.47 437.13V465.13H587.03L569.03 442.41V465.13H566.07V437.13H568.51L586.55 459.85V437.13H589.47Z" fill="#333333"/>
<path d="M611.52 451.96L605.8 457.76V465.12H602.84V437.12H605.8V454.04L622.24 437.12H625.64L613.52 449.8L626.48 465.12H622.96L611.52 451.96Z" fill="#333333"/>
<path d="M635.52 437.13H638.48V465.13H635.52V437.13Z" fill="#333333"/>
<path d="M675.23 437.13V465.13H672.79L654.79 442.41V465.13H651.83V437.13H654.27L672.31 459.85V437.13H675.23Z" fill="#333333"/>
<path d="M688.6 437.13H700C708.96 437.13 715 442.89 715 451.13C715 459.37 708.96 465.13 700 465.13H688.6V437.13ZM699.83 462.56C707.27 462.56 712.07 457.84 712.07 451.12C712.07 444.4 707.27 439.68 699.83 439.68H691.55V462.56H699.83Z" fill="#333333"/>
<path d="M352.46 3.64014V69.3201H207.39C197.78 69.3201 189.99 77.1101 189.99 86.7201C189.99 96.3301 197.78 104.12 207.39 104.12H368.3C404.64 104.12 434.09 133.58 434.09 169.91V196.04H500.24C500.24 196.04 516.84 197.32 521.31 185.83C525.14 193.81 535.35 223.81 565.04 243.6C560.89 247.35 553.87 253.18 519.72 255.73H359.81V170.03C359.81 161.57 352.95 154.71 344.49 154.71H191.16C149.45 154.71 115.63 120.89 115.63 79.1801C115.63 37.4701 149.45 3.65012 191.16 3.65012H352.47L352.46 3.64014Z" fill="#333333"/>
<path d="M756.87 91.9801H684.73C684.73 91.9801 681.22 61.0101 647.7 61.0201C644.83 61.6601 610.36 61.0201 601.1 91.9801C601.1 91.9801 596.95 107.3 595.67 131.6C590.24 126.45 574.76 114.8 574.76 114.8C574.76 114.8 598.94 101.31 598.22 64.4501C598.22 58.7001 600.14 36.9201 577.39 19.2101C582.66 15.3801 603.72 0.300049 653.52 0.300049C655.91 0.540049 740.42 0.300049 756.86 91.9901L756.87 91.9801Z" fill="#333333"/>
<path d="M353.74 255.72V186.78C353.74 186.78 348.31 191.09 336.66 190.77H157.44L109.16 255.72H353.74Z" fill="#CC2127"/>
<path d="M659.4 117.59V170.73H692.56C680.83 202.33 654.5 198.26 649.23 198.74C613.8 195.15 603.99 173.13 601.11 162.59C593.69 128.84 566.88 119.98 558.02 117.11C595.6 98.2001 590.34 67.8001 590.58 60.8501C585.07 2.20011 517.09 3.64012 517.09 3.64012H360.05C360.05 3.64012 357.41 97.7001 360.05 97.4801C422.69 92.2901 439.77 148.83 439.77 148.83C439.77 148.83 495.31 149.19 503.09 148.83C523.92 148.35 524.4 165.83 525.23 169.9C526.07 173.97 532.17 192.4 540.79 207.36C575.26 261.94 624.58 259.07 637.02 259.55C683.94 259.55 705.49 234.17 705.49 234.17V254.28H761.03V118.31L659.41 117.59H659.4ZM497.69 102.51H434.09V64.2101H497.69C508.27 64.2101 516.84 72.7801 516.84 83.3601C516.84 93.9401 508.27 102.51 497.69 102.51Z" fill="#CC2127"/>
<path d="M47.8201 314.09V330.82H34.9101V397.7H13.1701V330.82H0.310059V314.09H47.8301H47.8201Z" fill="#333333"/>
<path d="M52.78 314.09H89.04V330.82H74.53V346.68H88.11V362.59H74.53V380.98H90.49V397.71H52.79V314.09H52.78Z" fill="#333333"/>
<path d="M148.56 314.09L136.09 351.84L149.75 397.7H127.28L118.48 361.86V397.7H96.74V314.08H118.48V346.57L128.16 314.08H148.56V314.09Z" fill="#333333"/>
<path d="M202.04 314.09V397.71H182.98L171.67 359.7V397.71H153.49V314.09H171.67L183.86 351.74V314.09H202.04Z" fill="#333333"/>
<path d="M260.46 363.05C260.46 371.45 260.26 377.4 259.87 380.9C259.47 384.4 258.23 387.59 256.15 390.48C254.07 393.37 251.25 395.59 247.7 397.14C244.15 398.69 240.02 399.47 235.31 399.47C230.6 399.47 226.81 398.74 223.25 397.27C219.69 395.81 216.82 393.61 214.65 390.69C212.48 387.76 211.19 384.58 210.78 381.13C210.37 377.69 210.16 371.66 210.16 363.05V348.74C210.16 340.34 210.36 334.39 210.75 330.89C211.14 327.39 212.38 324.2 214.47 321.31C216.55 318.42 219.37 316.2 222.91 314.65C226.46 313.1 230.59 312.33 235.31 312.33C239.79 312.33 243.81 313.06 247.37 314.53C250.93 315.99 253.8 318.19 255.97 321.11C258.14 324.04 259.43 327.22 259.84 330.67C260.25 334.12 260.46 340.14 260.46 348.75V363.06V363.05ZM238.71 335.57C238.71 331.68 238.5 329.19 238.07 328.11C237.64 327.03 236.75 326.48 235.41 326.48C234.27 326.48 233.4 326.92 232.8 327.8C232.2 328.68 231.9 331.27 231.9 335.57V374.62C231.9 379.47 232.1 382.47 232.49 383.61C232.88 384.75 233.81 385.32 235.25 385.32C236.69 385.32 237.68 384.67 238.09 383.36C238.5 382.05 238.71 378.93 238.71 374.01V335.58V335.57Z" fill="#333333"/>
<path d="M335.65 314.09V397.71H316.64L316.61 341.26L309.04 397.71H295.56L287.58 342.55L287.55 397.71H268.54V314.09H296.67C297.51 319.12 298.37 325.04 299.25 331.87L302.34 353.14L307.34 314.1H335.63L335.65 314.09Z" fill="#333333"/>
<path d="M381.97 314.09L394.41 397.71H372.19L371.02 382.68H363.24L361.93 397.71H339.45L350.54 314.09H381.97ZM370.45 367.85C369.35 358.38 368.25 346.67 367.14 332.73C364.93 348.74 363.53 360.45 362.97 367.85H370.46H370.45Z" fill="#333333"/>
<path d="M427.33 314.09V369.97C427.33 378.34 427.24 383.72 427.07 386.11C426.9 388.5 426.11 390.67 424.71 392.59C423.31 394.52 421.41 395.85 419.02 396.59C416.63 397.33 413.02 397.7 408.21 397.7H397.32V383.08C398.63 383.18 399.57 383.24 400.16 383.24C401.71 383.24 402.93 382.86 403.83 382.1C404.73 381.34 405.24 380.41 405.38 379.31C405.52 378.21 405.59 376.07 405.59 372.91V314.08H427.33V314.09Z" fill="#333333"/>
<path d="M485.18 314.09V369.97C485.18 376.3 484.97 380.76 484.56 383.32C484.15 385.88 482.92 388.52 480.89 391.22C478.86 393.92 476.18 395.97 472.86 397.37C469.54 398.76 465.62 399.46 461.11 399.46C456.12 399.46 451.71 398.63 447.89 396.98C444.07 395.33 441.21 393.18 439.32 390.52C437.43 387.87 436.31 385.07 435.96 382.13C435.62 379.19 435.44 373 435.44 363.56V314.08H457.18V376.78C457.18 380.43 457.38 382.76 457.77 383.78C458.16 384.8 458.97 385.31 460.17 385.31C461.55 385.31 462.43 384.75 462.83 383.63C463.22 382.51 463.42 379.87 463.42 375.7V314.08H485.16L485.18 314.09Z" fill="#333333"/>
<path d="M558.31 339.39H538.11V333.19C538.11 330.3 537.85 328.46 537.34 327.66C536.82 326.87 535.96 326.47 534.76 326.47C533.45 326.47 532.46 327 531.79 328.07C531.12 329.14 530.78 330.76 530.78 332.93C530.78 335.72 531.16 337.82 531.91 339.24C532.63 340.65 534.68 342.36 538.05 344.35C547.73 350.1 553.83 354.81 556.34 358.49C558.85 362.17 560.11 368.11 560.11 376.31C560.11 382.27 559.41 386.66 558.02 389.48C556.63 392.3 553.93 394.67 549.94 396.58C545.95 398.49 541.3 399.45 536 399.45C530.18 399.45 525.21 398.35 521.1 396.14C516.99 393.94 514.29 391.13 513.02 387.72C511.74 384.31 511.11 379.47 511.11 373.21V367.74H531.3V377.91C531.3 381.04 531.59 383.06 532.15 383.95C532.72 384.85 533.73 385.29 535.17 385.29C536.61 385.29 537.69 384.72 538.4 383.58C539.11 382.44 539.46 380.76 539.46 378.52C539.46 373.6 538.79 370.38 537.45 368.86C536.07 367.35 532.68 364.81 527.28 361.27C521.87 357.69 518.29 355.09 516.54 353.47C514.78 351.85 513.33 349.62 512.18 346.76C511.03 343.9 510.45 340.25 510.45 335.81C510.45 329.41 511.27 324.72 512.9 321.76C514.54 318.8 517.18 316.48 520.83 314.81C524.48 313.14 528.89 312.3 534.05 312.3C539.7 312.3 544.51 313.21 548.49 315.04C552.47 316.87 555.1 319.16 556.39 321.94C557.68 324.71 558.33 329.42 558.33 336.07V339.37L558.31 339.39Z" fill="#333333"/>
<path d="M566.93 314.09H583.2C593.7 314.09 600.8 314.57 604.5 315.54C608.2 316.5 611.02 318.09 612.95 320.29C614.88 322.49 616.08 324.95 616.57 327.65C617.05 330.35 617.29 335.67 617.29 343.58V372.86C617.29 380.37 616.94 385.38 616.23 387.92C615.52 390.45 614.29 392.43 612.54 393.86C610.78 395.29 608.61 396.29 606.03 396.85C603.45 397.42 599.55 397.7 594.36 397.7H566.94V314.08L566.93 314.09ZM588.68 328.39V383.4C591.81 383.4 593.74 382.77 594.46 381.52C595.18 380.26 595.54 376.85 595.54 371.27V338.78C595.54 334.99 595.42 332.57 595.18 331.5C594.94 330.43 594.39 329.65 593.53 329.15C592.67 328.65 591.05 328.4 588.68 328.4V328.39Z" fill="#333333"/>
<path d="M673.95 314.09V397.71H654.89L643.58 359.7V397.71H625.4V314.09H643.58L655.77 351.74V314.09H673.95Z" fill="#333333"/>
<path d="M695.95 380.66V397.7H680.2V380.66H695.95Z" fill="#333333"/>
<path d="M702.2 314.09H723.89C730.74 314.09 735.93 314.62 739.46 315.69C742.99 316.76 745.84 318.92 748.01 322.17C750.18 325.42 751.26 330.66 751.26 337.89C751.26 342.78 750.49 346.18 748.96 348.11C747.43 350.04 744.41 351.52 739.9 352.55C744.93 353.69 748.34 355.57 750.13 358.21C751.92 360.85 752.82 364.89 752.82 370.33V378.08C752.82 383.73 752.18 387.92 750.88 390.64C749.58 393.36 747.53 395.22 744.71 396.22C741.89 397.22 736.1 397.72 727.36 397.72H702.21V314.1L702.2 314.09ZM723.95 328.39V346.98C724.88 346.95 725.6 346.93 726.12 346.93C728.25 346.93 729.62 346.41 730.2 345.35C730.78 344.3 731.08 341.3 731.08 336.34C731.08 333.72 730.84 331.89 730.36 330.84C729.88 329.79 729.25 329.13 728.48 328.85C727.71 328.58 726.2 328.42 723.96 328.38L723.95 328.39ZM723.95 360V383.4C727.01 383.3 728.97 382.82 729.81 381.95C730.65 381.09 731.08 378.97 731.08 375.6V367.8C731.08 364.22 730.7 362.05 729.94 361.29C729.18 360.53 727.19 360.1 723.95 360Z" fill="#333333"/>
<path d="M810.61 314.09V397.71H788.87V362.59H782.36V397.71H760.62V314.09H782.36V343.99H788.87V314.09H810.61Z" fill="#333333"/>
<path d="M819.34 314.09H835.61C846.11 314.09 853.21 314.57 856.91 315.54C860.61 316.5 863.43 318.09 865.36 320.29C867.29 322.49 868.49 324.95 868.98 327.65C869.46 330.35 869.7 335.67 869.7 343.58V372.86C869.7 380.37 869.35 385.38 868.64 387.92C867.93 390.45 866.7 392.43 864.95 393.86C863.19 395.29 861.02 396.29 858.44 396.85C855.86 397.42 851.96 397.7 846.77 397.7H819.35V314.08L819.34 314.09ZM841.08 328.39V383.4C844.21 383.4 846.14 382.77 846.86 381.52C847.58 380.26 847.94 376.85 847.94 371.27V338.78C847.94 334.99 847.82 332.57 847.58 331.5C847.34 330.43 846.79 329.65 845.93 329.15C845.07 328.65 843.45 328.4 841.08 328.4V328.39Z" fill="#333333"/>
<path d="M731.07 448.48L869.7 453.48L731.07 458.48L726.07 458.66V448.3L731.07 448.48Z" fill="#333333"/>
<path d="M138.93 458.48L0.300049 453.48L138.93 448.48L143.93 448.3V458.66L138.93 458.48Z" fill="#333333"/>
</svg>
