<svg width="47" height="39" viewBox="0 0 47 39" fill="none" xmlns="http://www.w3.org/2000/svg">
<g clip-path="url(#clip0_37_1061)">
<path d="M23.7297 9.40734C24.2181 9.4076 24.6863 9.21374 25.0319 8.86842C25.3772 8.52336 25.5713 8.05495 25.5713 7.56678C25.5716 7.07834 25.3777 6.60995 25.0327 6.2646C24.6876 5.91903 24.2195 5.72489 23.731 5.72463C23.2428 5.72437 22.7745 5.91824 22.4289 6.2633C22.0833 6.60836 21.8891 7.0765 21.8889 7.56494C21.8889 8.05312 22.0828 8.5215 22.4281 8.86712C22.7731 9.21243 23.2413 9.40682 23.7297 9.40734ZM23.7297 6.66716C24.0935 6.6669 24.4214 6.88601 24.5609 7.22196C24.7001 7.55791 24.6234 7.94489 24.3662 8.20224C24.1089 8.45934 23.7222 8.53637 23.386 8.39741C23.05 8.25819 22.8309 7.9303 22.8309 7.56649C22.8317 7.07024 23.2335 6.66823 23.7297 6.66716ZM38.2524 19.2759C38.2503 18.0664 37.7845 16.904 36.951 16.0277C36.1172 15.1516 34.9795 14.6285 33.7718 14.5663C32.6703 12.2117 30.7745 10.3209 28.4174 9.22541C28.5811 7.8834 28.1616 6.53546 27.2654 5.52347C26.3692 4.51121 25.0818 3.93164 23.73 3.93164C22.3778 3.93164 21.0908 4.51116 20.1946 5.52347C19.2981 6.53546 18.8789 7.88347 19.0426 9.22541C16.6758 10.3249 14.7751 12.2269 13.6772 14.5941C12.392 14.4338 11.0973 14.8096 10.0976 15.6332C9.09807 16.4568 8.48159 17.6557 8.39286 18.9477C8.30438 20.24 8.75145 21.5117 9.62922 22.4641L9.61855 22.4834L9.88554 22.7319C9.93108 22.7743 9.98026 22.8105 10.0268 22.8498C10.0661 22.8836 10.1054 22.9177 10.1447 22.9502C10.2233 23.0129 10.3019 23.072 10.3844 23.1293C10.4237 23.1584 10.4656 23.1878 10.5077 23.2151C10.5913 23.2706 10.6774 23.3216 10.7641 23.3723C10.808 23.3976 10.8512 23.4233 10.896 23.4473C10.9832 23.4933 11.0719 23.535 11.1614 23.5753C11.2101 23.5974 11.258 23.6206 11.3074 23.6409C11.3959 23.6771 11.4857 23.7085 11.576 23.7395C11.6298 23.758 11.6827 23.7788 11.7373 23.7942C11.8273 23.8217 11.9192 23.8433 12.0121 23.8649C12.0691 23.8782 12.1253 23.8943 12.1828 23.9042C12.2814 23.9235 12.3816 23.9368 12.4816 23.9498C12.5339 23.9568 12.5849 23.9667 12.6387 23.9721C12.7928 23.987 12.9474 23.9953 13.1032 23.9953C13.2591 23.9953 13.4142 23.987 13.5683 23.9721C13.6076 23.9682 13.6416 23.9615 13.6786 23.9568H13.6791C14.7723 26.3131 16.6603 28.2094 19.0119 29.3127C19.0119 29.338 19.008 29.3619 19.008 29.3866V29.3864C19.0085 30.5686 19.4546 31.7071 20.2571 32.5752L20.2464 32.5944L20.5134 32.8434C20.5603 32.8866 20.6105 32.9246 20.6584 32.966C20.6956 32.9983 20.7331 33.0308 20.7716 33.0618C20.8502 33.126 20.9334 33.1867 21.0167 33.2455C21.056 33.2731 21.0953 33.3009 21.1346 33.3272C21.2205 33.3842 21.3081 33.4365 21.3974 33.487C21.4393 33.5109 21.4807 33.5356 21.5234 33.5585C21.6121 33.6056 21.7032 33.6486 21.795 33.6897C21.8413 33.7108 21.8877 33.7329 21.9353 33.7524C22.0253 33.7894 22.1167 33.8216 22.2101 33.8529C22.2624 33.8706 22.3137 33.8901 22.3673 33.9062C22.4583 33.9338 22.5515 33.9556 22.6444 33.9778C22.7001 33.9908 22.7553 34.0064 22.8117 34.0171C22.9106 34.0366 23.0113 34.0501 23.1118 34.0634C23.1641 34.0701 23.2146 34.0798 23.2689 34.0855C23.4225 34.1003 23.5776 34.1092 23.7335 34.1092C23.8893 34.1092 24.0444 34.1006 24.1985 34.0855C24.2508 34.08 24.3018 34.0701 24.3536 34.0631C24.454 34.0501 24.5547 34.0368 24.6536 34.0176C24.7106 34.0061 24.7655 33.9905 24.8212 33.9783C24.9143 33.9567 25.007 33.9346 25.096 33.9072C25.1493 33.8911 25.2009 33.8716 25.2532 33.8534C25.345 33.8224 25.4366 33.7901 25.528 33.7532C25.5756 33.7337 25.6214 33.7113 25.6685 33.6905C25.7601 33.6488 25.8512 33.6064 25.9399 33.5593C25.9826 33.5364 26.024 33.5117 26.0658 33.4878C26.1546 33.437 26.2425 33.3844 26.3287 33.328C26.368 33.3017 26.4073 33.2739 26.4466 33.2468C26.5301 33.1875 26.6126 33.1271 26.6927 33.0626C26.732 33.0316 26.7677 32.9993 26.8051 32.967C26.8535 32.9259 26.9038 32.8885 26.9504 32.8442L27.2173 32.5952L27.2067 32.5759C28.0095 31.7078 28.4555 30.5693 28.4558 29.3871C28.4558 29.3624 28.4521 29.3385 28.4518 29.3138C30.7933 28.2146 32.6755 26.3295 33.7711 23.9864C33.8461 23.9825 33.921 23.9812 33.9957 23.9739C34.0472 23.9692 34.0969 23.9593 34.1482 23.9523C34.2499 23.9393 34.3512 23.926 34.4514 23.906C34.5071 23.8951 34.5614 23.8797 34.6164 23.8667C34.7103 23.8446 34.804 23.8222 34.8958 23.7944C34.9481 23.7788 34.9986 23.7598 35.0501 23.7421C35.1433 23.7103 35.236 23.678 35.3249 23.6403C35.3718 23.6211 35.4168 23.601 35.4623 23.5786C35.555 23.537 35.6474 23.4943 35.7371 23.4462C35.7788 23.4238 35.8191 23.3999 35.86 23.3762C35.95 23.3252 36.0387 23.2721 36.1254 23.2148C36.1647 23.1888 36.204 23.1615 36.2409 23.1344C36.3245 23.0756 36.4075 23.0166 36.4876 22.9499C36.5269 22.919 36.5631 22.8864 36.6008 22.8542C36.6487 22.8149 36.6989 22.7756 36.7453 22.7316L37.0123 22.4826L37.0021 22.4633V22.4636C37.8049 21.596 38.2515 20.4578 38.2525 19.2758L38.2524 19.2759ZM37.3099 19.2759C37.3101 20.1321 37.0181 20.9624 36.4821 21.6299C35.7716 20.7222 34.6831 20.1919 33.5306 20.1919C32.378 20.1919 31.2895 20.7222 30.5791 21.6299C29.8153 20.6728 29.5631 19.405 29.902 18.2283C30.241 17.0518 31.1292 16.1123 32.2849 15.7082C33.4408 15.3039 34.7208 15.485 35.7191 16.1938C36.7176 16.9027 37.3104 18.0513 37.3099 19.276V19.2759ZM35.6754 22.384C35.6574 22.3962 35.64 22.4092 35.622 22.4209C35.532 22.4811 35.4394 22.5388 35.3441 22.5901L35.3269 22.6H35.3267C35.1208 22.7116 34.9049 22.8037 34.6816 22.8748C34.6514 22.8847 34.6204 22.8925 34.59 22.9016C34.5114 22.9247 34.4302 22.9456 34.3485 22.964C34.3092 22.9724 34.2723 22.9802 34.2337 22.9877C34.1551 23.0026 34.0732 23.0145 33.9917 23.0247C33.9556 23.0291 33.9199 23.0346 33.8835 23.0379C33.7656 23.0486 33.648 23.0556 33.5301 23.0556C33.4122 23.0556 33.2946 23.0486 33.1767 23.0379C33.1405 23.0343 33.1044 23.0288 33.0684 23.0247C32.9873 23.0145 32.9066 23.0026 32.827 22.9877C32.7877 22.9802 32.7484 22.9724 32.7119 22.964C32.6305 22.9458 32.5501 22.925 32.4707 22.9016C32.44 22.8925 32.4096 22.8847 32.3791 22.8748C32.1558 22.8035 31.9396 22.7116 31.7332 22.6L31.7184 22.5914C31.6221 22.5383 31.5284 22.4811 31.4376 22.4202C31.4204 22.4092 31.4038 22.397 31.3874 22.3856C31.3421 22.3541 31.2994 22.32 31.2555 22.2869C31.7868 21.5625 32.6315 21.1344 33.5301 21.1344C34.4284 21.1344 35.2734 21.5625 35.8048 22.2869C35.7618 22.3195 35.7199 22.353 35.6754 22.384ZM23.7295 4.8942C24.6832 4.89316 25.6021 5.25305 26.3013 5.90152C27.0005 6.55027 27.4283 7.43946 27.4986 8.39083C27.5691 9.34193 27.2769 10.2845 26.6807 11.029C25.9703 10.1216 24.8818 9.59128 23.7295 9.59128C22.5772 9.59128 21.4887 10.1216 20.7785 11.029C20.1824 10.2842 19.8904 9.34199 19.9607 8.39083C20.0312 7.43973 20.459 6.55051 21.158 5.90206C21.8572 5.25331 22.7758 4.89313 23.7296 4.8942H23.7295ZM25.8685 11.7878L25.8238 11.8188C25.7306 11.8807 25.6354 11.9392 25.5367 11.9931L25.5269 11.9991V11.9988C25.32 12.1107 25.1032 12.2026 24.8794 12.2739C24.8495 12.2838 24.8193 12.2916 24.7894 12.3002C24.7108 12.3239 24.6288 12.3447 24.5466 12.3629C24.5073 12.3712 24.4703 12.379 24.4323 12.3861C24.3538 12.4014 24.2718 12.4131 24.1903 12.4253C24.1542 12.4298 24.118 12.4352 24.0821 12.4384C23.9642 12.4493 23.8466 12.4563 23.7287 12.4563C23.6108 12.4563 23.4932 12.4493 23.3753 12.4384C23.3389 12.4352 23.303 12.4298 23.2671 12.4253C23.1859 12.4152 23.1049 12.4032 23.0248 12.3861C22.9855 12.379 22.9491 12.3712 22.9108 12.3629C22.8288 12.3444 22.7479 12.3233 22.6678 12.3002C22.6378 12.2916 22.6077 12.2838 22.5782 12.2739H22.578C22.3542 12.2029 22.1372 12.1107 21.9305 11.9988L21.9199 11.9926C21.8218 11.9392 21.7268 11.8807 21.6339 11.819L21.5883 11.7873C21.5423 11.7555 21.4983 11.7204 21.4541 11.6868H21.4543C21.9857 10.9626 22.8301 10.5348 23.7285 10.5348C24.6268 10.5348 25.4714 10.9626 26.0029 11.6868C25.9591 11.7204 25.9151 11.7558 25.8685 11.7878ZM13.1019 15.4968C14.0556 15.4955 14.9745 15.8551 15.674 16.5039C16.3732 17.1523 16.801 18.0415 16.8716 18.9926C16.9421 19.9437 16.6498 20.8863 16.054 21.6308C15.3435 20.7229 14.255 20.1923 13.1025 20.1923C11.9496 20.1923 10.8611 20.7229 10.151 21.6308C9.55479 20.8866 9.26255 19.9441 9.3331 18.9929C9.40336 18.0418 9.83117 17.1526 10.5304 16.5041C11.2296 15.8556 12.1482 15.4955 13.102 15.4968H13.1019ZM15.248 22.3837C15.2301 22.3967 15.2118 22.4098 15.1934 22.423C15.1046 22.4824 15.013 22.538 14.9186 22.5898L14.8975 22.6021L14.8972 22.6018C14.6919 22.7134 14.4764 22.8056 14.2537 22.8769C14.2227 22.887 14.191 22.8953 14.159 22.9044C14.0804 22.9276 14.0018 22.9482 13.9206 22.9661C13.8813 22.9747 13.842 22.9825 13.8027 22.9901C13.7241 23.0049 13.6429 23.0169 13.562 23.027C13.5258 23.0314 13.4897 23.0369 13.4527 23.0403C13.3348 23.0509 13.2172 23.058 13.0993 23.058C12.9815 23.058 12.8638 23.0509 12.7459 23.0403C12.709 23.0366 12.6726 23.0312 12.6359 23.0265C12.5573 23.0166 12.4756 23.0049 12.3967 22.9901C12.3574 22.9825 12.3181 22.9747 12.2789 22.9656C12.2003 22.9479 12.1217 22.9263 12.0433 22.9052C12.0108 22.8959 11.978 22.8873 11.9463 22.8769C11.8412 22.843 11.7378 22.8058 11.6369 22.7634L11.6283 22.7598C11.518 22.7132 11.4107 22.6609 11.3064 22.6026C11.2947 22.5963 11.2835 22.5893 11.2723 22.5825C11.1836 22.5336 11.0969 22.4813 11.0129 22.4254C10.99 22.4105 10.9676 22.3939 10.9452 22.3783C10.9041 22.3496 10.8648 22.3187 10.8247 22.2882V22.2885C11.3561 21.564 12.201 21.1362 13.0994 21.1362C13.9979 21.1362 14.8426 21.564 15.374 22.2885C15.334 22.3184 15.2926 22.3517 15.2481 22.3824L15.248 22.3837ZM25.8735 32.495C25.8564 32.5072 25.8394 32.5194 25.8217 32.5311C25.7309 32.592 25.6375 32.649 25.5415 32.7018L25.5267 32.7102H25.5264C25.32 32.8218 25.1038 32.9137 24.8803 32.985C24.8503 32.9943 24.8207 33.0021 24.7902 33.011C24.7116 33.0347 24.6291 33.0557 24.5472 33.0737C24.5079 33.082 24.4717 33.0898 24.4337 33.0969C24.3551 33.1122 24.2726 33.1244 24.1909 33.1341C24.1548 33.1385 24.1191 33.144 24.0829 33.1473C23.965 33.158 23.8474 33.165 23.7295 33.165C23.6117 33.165 23.494 33.158 23.3762 33.1473C23.3397 33.1437 23.3038 33.1382 23.2679 33.1341C23.1867 33.1239 23.1058 33.112 23.0256 33.0969C22.9863 33.0898 22.9494 33.082 22.9117 33.0737C22.8297 33.0555 22.7488 33.0344 22.6686 33.011C22.6387 33.0024 22.6085 32.9946 22.5791 32.985C22.3553 32.9137 22.1388 32.8218 21.9322 32.7102L21.9184 32.7024C21.8218 32.6493 21.7284 32.592 21.6373 32.5311C21.6196 32.5194 21.6025 32.5067 21.585 32.495C21.5403 32.464 21.4981 32.4302 21.4552 32.3976C21.9866 31.6732 22.831 31.2453 23.7293 31.2453C24.6276 31.2453 25.4723 31.6732 26.0037 32.3976C25.9608 32.4302 25.9183 32.464 25.8735 32.495ZM26.681 31.7411C25.9709 30.8332 24.8823 30.3028 23.7298 30.3028C22.5772 30.3028 21.4887 30.8332 20.7785 31.7411C20.1824 30.9958 19.8899 30.0528 19.9604 29.1011C20.0307 28.1495 20.4582 27.2597 21.1575 26.6102C21.8567 25.961 22.7755 25.6 23.7298 25.6C24.684 25.6 25.6029 25.961 26.3021 26.6102C27.001 27.2597 27.4289 28.1494 27.4991 29.1011C27.5694 30.0528 27.2772 30.9958 26.681 31.7411ZM28.3264 28.3246C28.0048 26.9277 27.0653 25.7531 25.7736 25.1322C24.4818 24.511 22.9777 24.511 21.686 25.1322C20.3942 25.7531 19.4549 26.9277 19.1332 28.3246C17.1695 27.3295 15.5843 25.7211 14.6183 23.7431L14.6267 23.74C14.7175 23.709 14.8073 23.6776 14.896 23.6414C14.9452 23.6211 14.9925 23.5982 15.041 23.5761C15.131 23.5368 15.2205 23.4936 15.3077 23.4473C15.3522 23.4236 15.3949 23.3981 15.4386 23.3733C15.5263 23.3234 15.6127 23.2721 15.6965 23.2162C15.7376 23.1891 15.7777 23.16 15.8177 23.1319C15.8997 23.0738 15.9806 23.014 16.0597 22.9507C16.099 22.919 16.1383 22.8854 16.1755 22.8526C16.2232 22.8133 16.2726 22.774 16.3189 22.7314L16.5864 22.4823L16.5758 22.4631L16.5755 22.4633C17.6591 21.2907 18.0744 19.649 17.6791 18.1022C17.2838 16.5557 16.1316 15.3147 14.6183 14.8057C15.6035 12.7866 17.2344 11.154 19.2522 10.1661C19.4635 10.7956 19.8054 11.3733 20.2554 11.8617L20.2447 11.8818L20.5122 12.1308C20.5622 12.1771 20.6158 12.218 20.6694 12.2625C20.7012 12.2895 20.7326 12.3171 20.7652 12.3434C20.8508 12.4129 20.9387 12.4777 21.0283 12.5399C21.0616 12.5636 21.0944 12.5875 21.1284 12.6099C21.22 12.6703 21.3135 12.7278 21.4084 12.7803C21.4449 12.8011 21.4808 12.8222 21.518 12.8423C21.6119 12.8922 21.7077 12.9372 21.8048 12.9804C21.8472 12.9997 21.8883 13.0197 21.9312 13.0374C22.0254 13.0767 22.1212 13.1098 22.2175 13.1423C22.2661 13.1587 22.314 13.1769 22.3632 13.1917C22.4579 13.2204 22.5537 13.2433 22.65 13.2656C22.7031 13.2781 22.7551 13.2932 22.809 13.3049C22.9099 13.325 23.0125 13.3383 23.115 13.3518C23.1652 13.3585 23.2147 13.3682 23.2654 13.3729C23.4195 13.3882 23.5746 13.3965 23.7304 13.3965C23.8863 13.3965 24.0419 13.3882 24.1955 13.3729C24.2465 13.3682 24.2956 13.3583 24.3461 13.3518C24.4487 13.3385 24.5507 13.325 24.6516 13.3049C24.7055 13.2943 24.7575 13.2794 24.8111 13.2656C24.9074 13.2433 25.0032 13.2204 25.0974 13.1917C25.1468 13.1769 25.1947 13.1587 25.2439 13.1423C25.3402 13.1098 25.4354 13.0759 25.5294 13.0374C25.572 13.0197 25.6137 12.9981 25.6558 12.9804C25.7529 12.9372 25.8489 12.892 25.9434 12.8417C25.9803 12.8222 26.0157 12.8024 26.0522 12.7806C26.1471 12.7265 26.2411 12.6703 26.3324 12.6099C26.3662 12.5875 26.3988 12.5636 26.4321 12.5404C26.5216 12.4777 26.6101 12.4129 26.6957 12.3439C26.7282 12.3176 26.7592 12.2901 26.7912 12.263C26.843 12.219 26.8968 12.1779 26.9484 12.1313L27.2159 11.8823L27.205 11.8623L27.2042 11.862C27.6544 11.3736 27.9966 10.7956 28.2084 10.1661C30.1627 11.124 31.7555 12.6872 32.7501 14.623C31.627 14.8085 30.6092 15.3948 29.8847 16.2728C29.1605 17.1511 28.7787 18.2619 28.8105 19.3999C28.8423 20.5379 29.2852 21.6259 30.057 22.4625L30.0463 22.482L30.3133 22.7311C30.3617 22.7758 30.4135 22.8151 30.463 22.8578C30.4983 22.888 30.5332 22.9182 30.5694 22.9478C30.6511 23.0139 30.7352 23.0759 30.8208 23.136C30.858 23.1623 30.8947 23.1891 30.9327 23.2146C31.0198 23.2723 31.1094 23.3254 31.2002 23.3772C31.2395 23.4004 31.2788 23.4243 31.322 23.4464C31.412 23.4941 31.5041 23.5373 31.5968 23.5789C31.6428 23.5997 31.6878 23.6216 31.7342 23.6408C31.8252 23.678 31.9176 23.7103 32.009 23.7418C32.0605 23.7595 32.111 23.7787 32.1633 23.7944C32.2551 23.8222 32.3485 23.8443 32.4425 23.8667C32.4979 23.8797 32.552 23.8951 32.6083 23.906C32.6543 23.9154 32.7009 23.9216 32.7472 23.9292L32.7475 23.9286C31.7732 25.8223 30.2261 27.36 28.3265 28.3225L28.3264 28.3246ZM31.6891 18.1668C31.6891 18.6552 31.8832 19.1236 32.2285 19.4689C32.5738 19.8143 33.042 20.0081 33.5304 20.0081C34.0189 20.0081 34.487 19.8143 34.8323 19.4689C35.1777 19.1236 35.3718 18.6552 35.3718 18.1668C35.3718 17.6783 35.1776 17.2102 34.8323 16.8649C34.487 16.5195 34.0189 16.3254 33.5304 16.3254C33.0422 16.3259 32.5741 16.5201 32.229 16.8654C31.8837 17.2104 31.6896 17.6786 31.6891 18.1668ZM34.4292 18.1668C34.4292 18.5303 34.2104 18.8582 33.8744 18.9972C33.5385 19.1364 33.1518 19.0593 32.8947 18.8025C32.6378 18.5454 32.5608 18.1587 32.7 17.8228C32.839 17.4868 33.1669 17.268 33.5304 17.268C34.0267 17.2685 34.4287 17.6705 34.4292 18.1668ZM13.1016 20.0065C13.59 20.0065 14.0584 19.8124 14.4038 19.4671C14.7491 19.1215 14.9432 18.6531 14.943 18.1647C14.9427 17.6762 14.7486 17.2078 14.403 16.8625C14.0577 16.5174 13.589 16.3236 13.1005 16.3238C12.6121 16.3241 12.1437 16.5185 11.7986 16.864C11.4536 17.2096 11.2597 17.6783 11.2602 18.1668C11.2618 18.6544 11.4564 19.1218 11.8015 19.4666C12.1463 19.8114 12.6139 20.0055 13.1016 20.0065ZM13.1016 17.2664C13.4651 17.2664 13.7928 17.4852 13.932 17.8209C14.0712 18.1566 13.9944 18.543 13.7379 18.8001C13.481 19.0575 13.0946 19.1348 12.7586 18.9961C12.4227 18.8574 12.2033 18.5303 12.2028 18.1667C12.2028 17.67 12.6048 17.2672 13.1016 17.2664ZM23.7298 26.4356C23.2413 26.4356 22.7732 26.6295 22.4279 26.9748C22.0825 27.3201 21.8884 27.7885 21.8884 28.277C21.8884 28.7652 22.0825 29.2335 22.4279 29.5789C22.7732 29.9242 23.2413 30.1183 23.7298 30.1183C24.2182 30.1183 24.6863 29.9242 25.0317 29.5789C25.377 29.2336 25.5711 28.7652 25.5711 28.277C25.5706 27.7888 25.3765 27.3207 25.0312 26.9753C24.6861 26.6303 24.2179 26.4361 23.7298 26.4356ZM23.7298 29.1758C23.3662 29.1755 23.0386 28.9564 22.8997 28.6205C22.7607 28.2848 22.8377 27.8981 23.0948 27.6413C23.3519 27.3842 23.7384 27.3074 24.0743 27.4466C24.41 27.5856 24.6291 27.9135 24.6291 28.277C24.6286 28.7733 24.2263 29.1755 23.7298 29.1758ZM27.9218 18.7102L27.4651 17.0054L26.6404 16.9622C26.5053 16.7444 26.3489 16.5407 26.1736 16.3541L26.345 15.5481L24.8168 14.6657L24.2045 15.2156C23.9549 15.1573 23.6999 15.1237 23.4436 15.1154L22.9947 14.425L21.2899 14.8822L21.2467 15.7046C21.0289 15.8396 20.8249 15.996 20.6381 16.1714L19.8326 16.0002L18.9502 17.5285L19.5001 18.1408C19.4418 18.3901 19.4082 18.6446 19.3999 18.9006L18.7093 19.3498L19.1657 21.054L19.9904 21.0977H19.9901C20.1254 21.3155 20.2818 21.5193 20.4572 21.7061L20.2868 22.5123L21.815 23.3955L22.4261 22.8457C22.6759 22.9037 22.9306 22.9373 23.1872 22.9453L23.6356 23.6373L25.3406 23.1798L25.3838 22.3552C25.6016 22.2201 25.8056 22.0637 25.993 21.8886L26.7984 22.0601L27.6803 20.5313L27.1304 19.9189V19.9192C27.189 19.6699 27.2225 19.4151 27.2306 19.1591L27.9218 18.7102ZM26.3401 18.6844L26.3484 18.9342L26.3482 18.934C26.3599 19.2637 26.3167 19.5931 26.2202 19.9088L26.1476 20.1484L26.5967 20.6468L26.3563 21.0634L25.6997 20.9247L25.5298 21.1058L25.53 21.1056C25.3042 21.3465 25.0406 21.5487 24.7493 21.7041L24.5287 21.822L24.4943 22.4918L24.0293 22.6162L23.6613 22.0549L23.4123 22.0635H23.4126C23.0829 22.0754 22.7534 22.0322 22.4378 21.9357L22.1994 21.8631L21.7008 22.312L21.2842 22.0713L21.4247 21.4155L21.2418 21.2448C21.0005 21.0192 20.7983 20.7556 20.6427 20.4644L20.5248 20.2453L19.8555 20.2091L19.7311 19.7446L20.2943 19.3803L20.2859 19.1302V19.1299C20.2745 18.7997 20.3177 18.47 20.414 18.1538L20.4863 17.9147L20.0372 17.4159L20.2779 16.9992L20.9342 17.1379L21.1041 16.9565H21.1044C21.33 16.7156 21.5936 16.5131 21.885 16.3575L22.1057 16.2396L22.1398 15.5701L22.6048 15.4457L22.9707 16.0072L23.2197 15.9989V15.9992C23.5494 15.9882 23.8789 16.0314 24.1948 16.1272L24.4337 16.1998L24.932 15.7507L25.3487 15.9914L25.2084 16.6477L25.3911 16.8181L25.3908 16.8178C25.632 17.0432 25.8342 17.3068 25.9893 17.598L26.1072 17.8187L26.7775 17.8528L26.9019 18.318L26.3401 18.6844ZM24.3536 17.2373H24.3533C23.7957 16.9156 23.1201 16.8717 22.5255 17.1181C21.9309 17.3648 21.4848 17.8741 21.3186 18.496C21.1523 19.1179 21.2845 19.7818 21.6766 20.2923C22.0688 20.8029 22.6762 21.1019 23.3199 21.1016C23.9637 21.1011 24.5706 20.8016 24.9622 20.2905C25.3538 19.7797 25.4855 19.1155 25.3187 18.4939C25.1756 17.9633 24.8279 17.5115 24.3517 17.2373L24.3536 17.2373ZM24.3466 19.6254L24.3463 19.6251C24.2066 19.8669 23.9861 20.0519 23.7236 20.1471C23.4613 20.2426 23.1735 20.2424 22.9112 20.1466C22.6489 20.0508 22.4285 19.8656 22.2892 19.6236C22.1498 19.3815 22.1001 19.0982 22.149 18.8233C22.1979 18.5483 22.3421 18.2992 22.5562 18.1202C22.7704 17.9409 23.041 17.843 23.3203 17.8436C23.5277 17.8428 23.7317 17.8969 23.9112 18.0005C24.1842 18.1582 24.3833 18.4176 24.4647 18.7221C24.5462 19.0263 24.5035 19.3508 24.3461 19.6235L24.3466 19.6254Z" fill="#373737"/>
</g>
<defs>
<clipPath id="clip0_37_1061">
<rect width="46.6324" height="38.6216" fill="white" transform="translate(0 0.378418)"/>
</clipPath>
</defs>
</svg>
